<svg id="svg" version="1.1" xmlns="http://www.w3.org/2000/svg" xmlns:xlink="http://www.w3.org/1999/xlink" width="400" height="400" viewBox="0, 0, 400,400"><g id="svgg"><path id="path0" d="M212.995 165.438 C 212.991 261.471,213.038 257.374,211.868 262.250 C 204.830 291.563,166.222 300.663,146.695 277.612 C 145.714 276.453,144.696 275.437,144.433 275.354 C 140.861 274.220,132.980 266.677,129.942 261.483 C 112.595 231.825,139.893 196.898,173.188 206.152 L 173.750 206.308 173.750 188.654 L 173.750 171.000 171.517 171.000 C 156.143 171.000,136.624 178.500,123.125 189.595 C 86.631 219.587,82.855 274.874,114.966 309.051 C 117.325 311.562,120.698 313.748,126.625 316.607 C 175.413 340.142,234.536 309.996,243.529 257.000 C 244.658 250.345,244.593 253.484,244.680 200.936 L 244.762 151.497 247.318 153.209 C 264.208 164.518,285.315 171.228,304.063 171.247 L 307.000 171.250 307.000 153.798 L 307.000 136.345 303.563 135.406 C 293.149 132.559,283.586 127.037,276.002 119.489 C 274.658 118.152,272.842 116.578,271.967 115.991 C 258.395 106.890,248.990 92.556,245.604 75.813 L 245.490 75.250 229.245 75.250 L 213.000 75.250 212.995 165.438 " stroke="none" fill="#fbfbfb" fill-rule="evenodd"></path><path id="path1" d="M199.917 64.417 C 199.825 64.508,199.750 105.458,199.750 155.417 C 199.750 236.424,199.708 246.493,199.362 248.501 C 197.009 262.136,187.144 273.625,174.142 277.873 C 165.183 280.800,154.032 280.192,146.476 276.363 C 145.374 275.804,145.198 275.767,145.495 276.153 C 164.480 300.818,204.627 292.408,211.868 262.250 C 213.038 257.374,212.991 261.471,212.995 165.438 L 213.000 75.250 229.253 75.250 L 245.506 75.250 245.355 74.188 C 245.271 73.603,245.102 72.450,244.979 71.625 C 244.855 70.800,244.753 68.803,244.752 67.188 L 244.750 64.250 222.417 64.250 C 210.133 64.250,200.008 64.325,199.917 64.417 M274.606 118.077 C 277.082 121.325,285.511 127.678,291.206 130.591 C 295.698 132.889,304.951 136.250,306.785 136.250 C 306.903 136.250,307.000 134.123,307.000 131.524 L 307.000 126.798 304.313 126.647 C 293.679 126.051,282.942 122.877,275.292 118.068 L 273.960 117.230 274.606 118.077 M153.875 160.382 C 105.441 165.463,71.991 211.066,81.629 258.875 C 85.748 279.309,97.672 297.491,115.000 309.756 L 116.875 311.084 114.966 309.051 C 82.855 274.867,86.631 219.588,123.125 189.595 C 136.624 178.500,156.143 171.000,171.517 171.000 L 173.750 171.000 173.750 165.880 C 173.750 160.772,173.749 160.759,173.188 160.641 C 170.075 159.983,159.082 159.835,153.875 160.382 " stroke="none" fill="#6bcbd3" fill-rule="evenodd"></path><path id="path2" d="M245.659 76.063 C 248.184 90.062,256.611 104.010,268.000 113.040 C 270.818 115.275,273.779 117.290,273.250 116.614 C 273.044 116.351,272.216 115.345,271.410 114.380 C 263.390 104.773,257.774 89.835,257.755 78.063 L 257.750 75.250 251.631 75.250 L 245.512 75.250 245.659 76.063 M307.000 153.723 L 307.000 171.250 304.063 171.247 C 285.315 171.228,264.208 164.518,247.318 153.209 L 244.762 151.497 244.680 200.936 C 244.593 253.484,244.658 250.345,243.529 257.000 C 233.848 314.051,167.632 343.043,118.125 311.906 L 116.625 310.963 117.503 311.794 C 138.174 331.361,164.408 339.226,191.500 333.978 C 223.620 327.757,249.532 302.058,256.136 269.875 C 257.790 261.816,257.750 263.279,257.750 210.348 C 257.750 184.032,257.844 162.500,257.959 162.500 C 258.074 162.500,258.784 162.940,259.535 163.479 C 274.898 174.479,297.205 181.712,316.875 182.070 L 319.875 182.125 319.939 159.850 L 320.003 137.574 316.564 137.424 C 313.495 137.290,309.411 136.801,307.638 136.356 L 307.000 136.196 307.000 153.723 M173.750 188.504 L 173.750 206.308 173.188 206.152 C 139.893 196.898,112.595 231.825,129.942 261.483 C 133.032 266.765,139.145 272.667,144.154 275.205 L 145.183 275.726 143.822 273.693 C 133.304 257.978,136.623 236.053,151.340 224.028 C 160.721 216.365,173.681 213.513,184.858 216.654 C 185.536 216.844,186.240 217.000,186.422 217.000 C 186.694 217.000,186.741 213.002,186.689 194.313 L 186.625 171.625 184.500 171.346 C 183.331 171.193,180.434 170.985,178.063 170.884 L 173.750 170.701 173.750 188.504 " stroke="none" fill="#eb1b53" fill-rule="evenodd"></path><path id="path3" d="M49.000 0.278 C 45.703 0.801,44.259 1.083,42.500 1.549 C 41.469 1.822,40.288 2.134,39.875 2.243 C 23.205 6.642,6.642 23.205,2.243 39.875 C 2.134 40.288,1.822 41.469,1.549 42.500 C 1.068 44.317,0.777 45.838,0.252 49.270 C -0.073 51.391,-0.099 348.560,0.225 350.517 C 0.349 351.264,0.584 352.719,0.748 353.750 C 1.020 355.466,1.275 356.573,2.040 359.375 C 2.408 360.719,3.474 363.770,3.766 364.309 C 3.894 364.548,4.000 364.853,4.000 364.987 C 4.000 365.427,6.326 370.072,7.824 372.625 C 14.749 384.421,27.638 394.450,40.125 397.758 C 40.538 397.867,41.550 398.142,42.375 398.369 C 44.383 398.921,45.848 399.195,49.125 399.630 C 53.225 400.175,346.746 400.183,350.750 399.639 C 354.682 399.104,359.126 398.095,361.750 397.142 C 362.369 396.917,363.381 396.558,364.000 396.344 C 377.493 391.672,391.672 377.493,396.344 364.000 C 396.558 363.381,396.917 362.369,397.142 361.750 C 398.095 359.126,399.104 354.682,399.639 350.750 C 400.183 346.746,400.175 53.225,399.630 49.125 C 399.195 45.848,398.921 44.383,398.369 42.375 C 398.142 41.550,397.867 40.538,397.758 40.125 C 394.450 27.638,384.421 14.749,372.625 7.824 C 370.072 6.326,365.427 4.000,364.987 4.000 C 364.853 4.000,364.548 3.894,364.309 3.766 C 362.724 2.909,356.926 1.252,353.750 0.748 C 352.719 0.584,351.264 0.349,350.517 0.225 C 348.746 -0.068,50.850 -0.016,49.000 0.278 M244.750 67.015 C 244.750 69.439,244.897 71.081,245.392 74.183 L 245.521 74.991 251.698 75.058 L 257.875 75.125 258.030 79.500 C 258.320 87.700,260.502 95.771,264.551 103.625 C 267.764 109.857,272.770 116.541,275.375 118.080 C 283.489 122.871,293.654 126.000,302.375 126.392 C 304.025 126.466,305.741 126.582,306.188 126.649 L 307.000 126.773 307.000 131.462 L 307.000 136.150 308.813 136.445 C 312.968 137.120,316.374 137.459,319.313 137.492 L 320.000 137.500 320.000 159.875 L 320.000 182.250 317.688 182.247 C 312.460 182.239,302.448 181.067,297.250 179.855 C 294.761 179.274,290.713 178.250,289.875 177.989 C 284.846 176.423,280.621 174.913,278.305 173.854 C 277.579 173.522,276.935 173.250,276.874 173.250 C 275.967 173.250,264.867 167.181,260.810 164.466 C 259.399 163.522,258.190 162.750,258.122 162.750 C 258.055 162.750,258.000 183.669,258.000 209.236 C 258.000 262.925,258.024 262.263,255.711 272.250 C 251.732 289.432,241.175 306.274,227.633 317.047 C 226.254 318.145,224.937 319.193,224.708 319.376 C 219.399 323.625,209.875 328.602,202.078 331.202 C 198.448 332.413,197.780 332.615,195.000 333.343 C 193.534 333.727,189.088 334.546,186.000 335.000 C 180.420 335.822,170.015 335.825,164.890 335.006 C 164.057 334.873,162.255 334.583,160.887 334.362 C 152.084 332.939,140.254 328.536,133.327 324.105 C 132.592 323.635,131.926 323.250,131.847 323.250 C 131.027 323.250,122.030 316.234,118.375 312.744 C 117.138 311.562,115.338 310.047,114.375 309.376 C 92.875 294.397,80.131 269.466,80.126 242.375 C 80.125 234.068,80.463 230.420,81.747 224.875 C 82.582 221.266,82.895 220.083,83.650 217.674 C 95.304 180.473,132.299 156.153,170.875 160.331 L 173.625 160.629 173.693 165.689 L 173.760 170.750 177.068 170.752 C 180.047 170.754,183.217 170.987,185.810 171.396 L 186.745 171.543 186.810 194.397 C 186.846 206.966,186.851 217.250,186.823 217.250 C 186.794 217.250,185.669 216.974,184.323 216.637 C 163.514 211.421,142.558 224.874,138.356 246.144 C 136.056 257.784,141.010 274.096,147.669 276.814 C 168.802 285.440,192.695 273.885,198.465 252.250 C 199.833 247.119,199.748 253.559,199.749 155.063 L 199.750 64.250 222.250 64.250 L 244.750 64.250 244.750 67.015 " stroke="none" fill="#040404" fill-rule="evenodd"></path><path id="path4" d="M251.617 75.185 L 257.735 75.259 257.817 78.380 L 257.898 81.501 257.887 78.313 L 257.875 75.125 251.687 75.118 L 245.500 75.112 251.617 75.185 M304.940 126.677 C 305.251 126.737,305.701 126.734,305.940 126.672 C 306.179 126.609,305.925 126.560,305.375 126.563 C 304.825 126.566,304.629 126.617,304.940 126.677 M315.316 137.429 C 315.696 137.487,316.258 137.485,316.566 137.426 C 316.873 137.367,316.563 137.320,315.875 137.322 C 315.188 137.323,314.936 137.372,315.316 137.429 M257.811 209.813 C 257.844 235.834,257.900 249.475,257.936 240.125 C 258.106 194.906,258.107 162.500,257.938 162.500 C 257.834 162.500,257.777 183.791,257.811 209.813 M178.563 170.932 C 179.078 170.986,179.922 170.986,180.438 170.932 C 180.953 170.878,180.531 170.834,179.500 170.834 C 178.469 170.834,178.047 170.878,178.563 170.932 M308.313 181.672 C 308.553 181.735,308.947 181.735,309.188 181.672 C 309.428 181.609,309.231 181.558,308.750 181.558 C 308.269 181.558,308.072 181.609,308.313 181.672 M314.688 182.176 C 314.997 182.236,315.503 182.236,315.813 182.176 C 316.122 182.117,315.869 182.068,315.250 182.068 C 314.631 182.068,314.378 182.117,314.688 182.176 M149.737 225.438 L 148.875 226.375 149.813 225.513 C 150.685 224.712,150.865 224.500,150.674 224.500 C 150.632 224.500,150.210 224.922,149.737 225.438 M147.613 227.563 L 146.625 228.625 147.688 227.637 C 148.676 226.718,148.865 226.500,148.676 226.500 C 148.635 226.500,148.157 226.978,147.613 227.563 M137.813 249.375 C 137.816 249.925,137.867 250.121,137.927 249.810 C 137.987 249.499,137.984 249.049,137.922 248.810 C 137.859 248.571,137.810 248.825,137.813 249.375 M137.813 256.875 C 137.816 257.425,137.867 257.621,137.927 257.310 C 137.987 256.999,137.984 256.549,137.922 256.310 C 137.859 256.071,137.810 256.325,137.813 256.875 M257.308 262.500 C 257.308 262.981,257.359 263.178,257.422 262.938 C 257.485 262.697,257.485 262.303,257.422 262.063 C 257.359 261.822,257.308 262.019,257.308 262.500 M233.616 311.563 L 232.375 312.875 233.688 311.634 C 234.907 310.482,235.115 310.250,234.928 310.250 C 234.889 310.250,234.298 310.841,233.616 311.563 M119.250 313.625 C 119.716 314.106,120.154 314.500,120.223 314.500 C 120.292 314.500,119.966 314.106,119.500 313.625 C 119.034 313.144,118.596 312.750,118.527 312.750 C 118.458 312.750,118.784 313.144,119.250 313.625 M229.987 314.938 L 229.125 315.875 230.063 315.013 C 230.935 314.212,231.115 314.000,230.924 314.000 C 230.882 314.000,230.460 314.422,229.987 314.938 M168.690 335.427 C 169.001 335.487,169.451 335.484,169.690 335.422 C 169.929 335.359,169.675 335.310,169.125 335.313 C 168.575 335.316,168.379 335.367,168.690 335.427 M181.188 335.426 C 181.497 335.486,182.003 335.486,182.313 335.426 C 182.622 335.367,182.369 335.318,181.750 335.318 C 181.131 335.318,180.878 335.367,181.188 335.426 M174.072 335.685 C 174.867 335.735,176.105 335.734,176.822 335.684 C 177.538 335.634,176.887 335.593,175.375 335.594 C 173.863 335.594,173.276 335.635,174.072 335.685 " stroke="none" fill="#5e091e" fill-rule="evenodd"></path></g></svg>